<svg version="1" xmlns="http://www.w3.org/2000/svg" width="682.667" height="682.667" viewBox="0 0 512.000000 512.000000"><path d="M224.5 54.6c-66 8.9-115.9 43-143.3 98-9.3 18.5-14.9 36.4-19.3 61.1-1.7 9.5-2.2 16.8-2.4 37.8-.4 28 .3 37.3 4.1 56.3 5.2 26 15.4 51.3 29.5 72.7 10.1 15.4 30.1 35.3 45.9 45.8 25.7 17 55.9 27.7 88.5 31.5 11.7 1.4 45.5 1.5 56.5.2 78.5-9.1 135-54.3 158.3-126.5 8.2-25.3 10.6-44.1 10.2-79-.3-28.3-1.6-40.1-6.6-60-5-19.7-15.5-44.1-25.6-59.5-28.5-43.4-74.6-70.9-131.6-78.4-13.3-1.8-51.1-1.8-64.2 0zm62.3 145.6c52.4 30.3 94.9 55.5 94.5 55.9-.8.7-191.4 110.9-196.5 113.5l-2.8 1.5V139.8l4.8 2.7c2.6 1.4 47.6 27.4 100 57.7z"/></svg>