<?xml version="1.0" encoding="utf-8"?>
<!-- Generator: Adobe Illustrator 22.1.0, SVG Export Plug-In . SVG Version: 6.00 Build 0)  -->
<svg version="1.1" id="Layer_1" xmlns="http://www.w3.org/2000/svg" xmlns:xlink="http://www.w3.org/1999/xlink" x="0px" y="0px"
	 viewBox="0 0 1080 168" style="enable-background:new 0 0 1080 168;" xml:space="preserve">
<style type="text/css">
	.st0{fill:#26364C;}
	.st1{fill:#9ED8C0;}
	.st2{fill:#F2727B;}
</style>
<path class="st0" d="M0.1,131.8c-0.3-1.2,0-1.8,1.5-1.8h7.1c1.2,0,1.8,0.3,2.1,1.8c2.7,16.5,18,26.2,38.6,26.2
	c19.7,0,32.1-9.1,32.1-23.5c0-35.3-74.7-18.2-74.7-61.8c0-18.2,16.2-31.5,40.3-31.5c24.7,0,40.6,14.4,42.7,35.3
	c0.3,1.5-0.3,2.1-1.5,2.1H81c-1.5,0-1.8-0.6-2.1-2.1c-1.8-14.7-13.5-25.6-31.8-25.6c-17.9,0-29.7,9.1-29.7,21.8
	c0,16.5,17.4,20.6,35,26.2c19.4,6.2,39.7,12.9,39.7,35.6c0,19.7-16.8,33.3-43.6,33.3S2.2,153.3,0.1,131.8z"/>
<path class="st0" d="M222.1,157.7v4.7c0,1.5-0.6,2.4-2.4,2.4h-6.2c-9.4,0-14.1-4.1-15.3-12.7c-14.4,11.5-27.4,15.6-40.6,15.6
	c-27.4,0-44.1-17.7-44.1-51.2v-70c0-1.5,0.6-2.4,2.4-2.4h6.2c1.5,0,2.4,0.9,2.4,2.4v69.2c0,27.4,12.4,42.1,34.1,42.1
	c13.2,0,25.9-4.7,39.1-15.9V46.5c0-1.5,0.6-2.4,2.1-2.4h6.5c1.5,0,2.4,0.9,2.4,2.4v100.6c0,6.2,1.8,8.2,7.7,8.2h3.5
	C221.5,155.4,222.1,156.3,222.1,157.7z"/>
<path class="st0" d="M346.3,103.9v0.9c0,1.5-0.9,2.4-2.4,2.4H245c0.6,32.4,20.6,50.6,45,50.6c19.1,0,35.6-10,42.1-30
	c0.3-1.5,1.2-1.8,2.6-1.8h6.5c0.6,0,1.2,0,1.5,0.3c0.6,0.3,0.6,0.9,0.3,1.8c-7.4,25.6-28.3,39.7-53,39.7
	c-31.2,0-56.5-23.5-56.5-63.3s25-63.3,56.5-63.3C321.3,41.2,346.3,64.2,346.3,103.9z M245,98.3h90c-2.1-30.3-21.2-47.1-45-47.1
	C266.5,51.2,247.1,68.3,245,98.3z"/>
<path class="st0" d="M505.3,164.8V91.7c0-7.4-1.7-13.3-5.1-17.9c-3.4-4.6-8-6.9-13.7-6.9c-5.9,0-10.8,2.5-14.6,7.4
	c-3.8,4.9-5.8,11-5.8,18.4v72.1h-31.9V92.2c0-4.9-0.3-8.9-1-12c-0.7-3.1-1.8-5.6-3.3-7.4c-1.6-1.8-3.6-3.1-6-3.8
	c-2.5-0.7-5.4-1.1-8.8-1.1c-12.9,0-19.4,7.8-19.4,23.5v73.3h-31.9V44.1h29.9v17.7c4.1-8,9-13.5,14.7-16.4c5.7-2.9,12.6-4.4,20.6-4.4
	c4.1,0,7.7,0.3,10.9,1c3.2,0.7,6,1.8,8.6,3.3c2.5,1.6,4.9,3.6,7.2,6c2.3,2.5,4.6,5.4,6.9,8.8c3.3-6.7,7.6-11.6,13-14.6
	c5.4-3,11.9-4.5,19.6-4.5c6,0,11.6,1,16.7,3.1c5.1,2,9.4,4.9,13,8.6c3.6,3.7,6.4,8,8.5,12.9c2,4.9,3.1,10.1,3.1,15.7v83.6H505.3z"/>
<path class="st0" d="M665.5,78.2c-2.9-7.8-7-14.5-12.3-20c-5.3-5.5-11.7-9.7-19.3-12.8c-7.5-3-16-4.5-25.5-4.5
	c-9.6,0-18.3,1.5-25.9,4.5c-7.6,3-14.1,7.3-19.5,12.9c-5.4,5.6-9.5,12.3-12.4,20.1c-2.9,7.8-4.3,16.5-4.3,26
	c0,9.3,1.4,17.9,4.2,25.7c2.8,7.8,6.8,14.6,12.1,20.1c5.3,5.6,11.8,9.9,19.5,13c7.7,3.1,16.4,4.7,26.2,4.7c9.3,0,17.8-1.5,25.4-4.5
	c7.6-3,14.1-7.3,19.4-12.9c5.3-5.6,9.4-12.2,12.3-20c2.9-7.8,4.3-16.5,4.3-26.1C669.8,94.8,668.4,86.1,665.5,78.2z"/>
<polygon class="st1" points="585.1,140.5 585.1,68.2 647.7,104.3 "/>
<path class="st0" d="M710.9,44.1V11.5h-31.4v107.9c0,6.5,0.9,12.8,2.7,18.6c1.8,5.9,4.7,11,8.7,15.5c4,4.4,9.1,7.9,15.3,10.5
	c6.2,2.6,13.7,3.9,22.6,3.9c8.5,0,15.8-1.3,21.9-3.9c6.1-2.6,11.2-6.2,15.2-10.7c4-4.5,6.9-9.6,8.8-15.5c1.9-5.8,2.8-11.9,2.8-18.3
	V85.3h-29.7v31.4c0,7.5-1.5,13.3-4.5,17.4c-3,4.1-7.7,6.1-14.1,6.1c-6.5,0-11.2-2.1-14.1-6.3c-2.9-4.2-4.3-10.1-4.3-17.8V66.7h82.9
	v98.1h31.9V44.1H710.9z"/>
<rect x="793.8" class="st2" width="31.9" height="29.7"/>
<path class="st0" d="M898.8,168c-9.8,0-18.6-1.6-26.2-4.7c-7.7-3.1-14.2-7.4-19.5-13c-5.3-5.6-9.4-12.3-12.1-20.1
	c-2.8-7.8-4.2-16.4-4.2-25.7c0-9.5,1.4-18.1,4.3-26c2.9-7.8,7-14.6,12.4-20.1c5.4-5.6,11.9-9.8,19.5-12.9c7.6-3,16.2-4.5,25.9-4.5
	c9.5,0,18,1.5,25.5,4.5c7.5,3,13.9,7.3,19.3,12.8c5.3,5.5,9.4,12.1,12.3,20c2.9,7.8,4.3,16.6,4.3,26.2c0,9.6-1.4,18.4-4.3,26.1
	c-2.9,7.8-7,14.4-12.3,20c-5.3,5.6-11.8,9.9-19.4,12.9C916.6,166.5,908.1,168,898.8,168z M898.8,141.3c19.5,0,29.2-12.3,29.2-36.8
	c0-24.4-9.7-36.5-29.2-36.5c-19.5,0-29.2,12.2-29.2,36.5C869.6,129,879.3,141.3,898.8,141.3z"/>
<path class="st0" d="M1047.9,164.8V91.7c0-9.3-1.6-15.6-4.7-18.9c-3.1-3.3-8.4-4.9-15.9-4.9c-16.5,0-24.8,9.2-24.8,27.7v69.2h-31.9
	V44.1h30.4v17.7c3.8-6.9,8.7-12.1,15-15.6c6.2-3.5,14.2-5.3,24-5.3c5.7,0,11,0.9,15.9,2.6c4.9,1.7,9.1,4.3,12.6,7.7
	c3.5,3.4,6.3,7.6,8.3,12.6c2,5,3.1,10.8,3.1,17.3v83.6H1047.9z"/>
</svg>
